<?xml version="1.0" encoding="UTF-8"?>
<!DOCTYPE svg PUBLIC "-//W3C//DTD SVG 1.1//EN" "http://www.w3.org/Graphics/SVG/1.1/DTD/svg11.dtd">
<svg xmlns="http://www.w3.org/2000/svg" version="1.1" width="32px" height="32px" style="shape-rendering:geometricPrecision; text-rendering:geometricPrecision; image-rendering:optimizeQuality; fill-rule:evenodd; clip-rule:evenodd" xmlns:xlink="http://www.w3.org/1999/xlink">
<g><path style="opacity:0.763" fill="#000000" d="M 7.5,6.5 C 10.4123,8.06634 13.079,10.0663 15.5,12.5C 17.6499,10.8509 19.6499,9.01761 21.5,7C 23.6667,6.5 24.5,7.33333 24,9.5C 21.9824,11.3501 20.1491,13.3501 18.5,15.5C 20.1491,17.6499 21.9824,19.6499 24,21.5C 24.5,23.6667 23.6667,24.5 21.5,24C 19.6499,21.9824 17.6499,20.1491 15.5,18.5C 13.3501,20.1491 11.3501,21.9824 9.5,24C 7.33333,24.5 6.5,23.6667 7,21.5C 9.01761,19.6499 10.8509,17.6499 12.5,15.5C 10.8509,13.3501 9.01761,11.3501 7,9.5C 6.53042,8.42317 6.69708,7.42317 7.5,6.5 Z"/></g>
</svg>
