<?xml version="1.0" encoding="UTF-8"?>
<!DOCTYPE svg PUBLIC "-//W3C//DTD SVG 1.1//EN" "http://www.w3.org/Graphics/SVG/1.1/DTD/svg11.dtd">
<svg xmlns="http://www.w3.org/2000/svg" version="1.1" width="34px" height="34px" style="shape-rendering:geometricPrecision; text-rendering:geometricPrecision; image-rendering:optimizeQuality; fill-rule:evenodd; clip-rule:evenodd" xmlns:xlink="http://www.w3.org/1999/xlink">
<g><path style="opacity:0.637" fill="#949494" d="M 19.5,11.5 C 18.5084,11.3284 17.8417,11.6618 17.5,12.5C 13.3482,11.662 12.0148,13.3287 13.5,17.5C 12.5084,17.3284 11.8417,17.6618 11.5,18.5C 9.85318,15.2475 10.5198,12.4142 13.5,10C 15.8805,9.26154 17.8805,9.76154 19.5,11.5 Z"/></g>
<g><path style="opacity:0.702" fill="#939393" d="M 19.5,11.5 C 21.4979,13.1765 21.8312,15.1765 20.5,17.5C 21.5,18.8333 22.5,20.1667 23.5,21.5C 23.3764,22.1067 23.0431,22.44 22.5,22.5C 21.4154,20.4131 19.7488,19.0798 17.5,18.5C 18.8333,16.5 18.8333,14.5 17.5,12.5C 17.8417,11.6618 18.5084,11.3284 19.5,11.5 Z"/></g>
<g><path style="opacity:0.709" fill="#959595" d="M 13.5,17.5 C 14.7079,18.2341 16.0413,18.5674 17.5,18.5C 19.7488,19.0798 21.4154,20.4131 22.5,22.5C 22.5654,22.9382 22.3988,23.2716 22,23.5C 21.1667,22.6667 20.3333,21.8333 19.5,21C 16.4776,20.9016 13.8109,20.0682 11.5,18.5C 11.8417,17.6618 12.5084,17.3284 13.5,17.5 Z"/></g>
</svg>
