<?xml version="1.0" encoding="UTF-8"?>
<!DOCTYPE svg PUBLIC "-//W3C//DTD SVG 1.1//EN" "http://www.w3.org/Graphics/SVG/1.1/DTD/svg11.dtd">
<svg xmlns="http://www.w3.org/2000/svg" version="1.1" width="38px" height="38px" style="shape-rendering:geometricPrecision; text-rendering:geometricPrecision; image-rendering:optimizeQuality; fill-rule:evenodd; clip-rule:evenodd" xmlns:xlink="http://www.w3.org/1999/xlink">
<g><path style="opacity:0.966" fill="#2ee081" d="M 12.5,-0.5 C 16.5,-0.5 20.5,-0.5 24.5,-0.5C 30.5,2.16667 34.8333,6.5 37.5,12.5C 37.5,16.5 37.5,20.5 37.5,24.5C 34.8333,30.5 30.5,34.8333 24.5,37.5C 20.5,37.5 16.5,37.5 12.5,37.5C 6.5,34.8333 2.16667,30.5 -0.5,24.5C -0.5,20.5 -0.5,16.5 -0.5,12.5C 2.16667,6.5 6.5,2.16667 12.5,-0.5 Z"/></g>
<g><path style="opacity:1" fill="#f5fdf9" d="M 15.5,7.5 C 22.3069,6.51246 26.6402,9.17912 28.5,15.5C 24.8571,15.5219 21.5238,14.5219 18.5,12.5C 11.9591,14.8288 10.9591,18.6621 15.5,24C 18.6489,25.0346 21.3156,24.3679 23.5,22C 25.1341,21.5065 26.8008,21.3398 28.5,21.5C 26.6393,27.9768 22.306,30.4768 15.5,29C 7.4824,25.1277 5.64907,19.2944 10,11.5C 11.8121,10.0229 13.6455,8.6896 15.5,7.5 Z"/></g>
</svg>
