<?xml version="1.0" encoding="UTF-8"?>
<!DOCTYPE svg PUBLIC "-//W3C//DTD SVG 1.1//EN" "http://www.w3.org/Graphics/SVG/1.1/DTD/svg11.dtd">
<svg xmlns="http://www.w3.org/2000/svg" version="1.1" width="44px" height="44px" style="shape-rendering:geometricPrecision; text-rendering:geometricPrecision; image-rendering:optimizeQuality; fill-rule:evenodd; clip-rule:evenodd" xmlns:xlink="http://www.w3.org/1999/xlink">
<g><path style="opacity:1" fill="#000000" d="M 7.5,10.5 C 16.8333,10.5 26.1667,10.5 35.5,10.5C 35.5,11.5 35.5,12.5 35.5,13.5C 26.1667,13.5 16.8333,13.5 7.5,13.5C 7.5,12.5 7.5,11.5 7.5,10.5 Z"/></g>
<g><path style="opacity:1" fill="#000000" d="M 7.5,20.5 C 16.8333,20.5 26.1667,20.5 35.5,20.5C 35.5,21.5 35.5,22.5 35.5,23.5C 26.1667,23.5 16.8333,23.5 7.5,23.5C 7.5,22.5 7.5,21.5 7.5,20.5 Z"/></g>
<g><path style="opacity:1" fill="#000000" d="M 7.5,30.5 C 16.8333,30.5 26.1667,30.5 35.5,30.5C 35.5,31.5 35.5,32.5 35.5,33.5C 26.1667,33.5 16.8333,33.5 7.5,33.5C 7.5,32.5 7.5,31.5 7.5,30.5 Z"/></g>
</svg>
