<?xml version="1.0" standalone="no"?>
<!DOCTYPE svg PUBLIC "-//W3C//DTD SVG 20010904//EN"
 "http://www.w3.org/TR/2001/REC-SVG-20010904/DTD/svg10.dtd">
<svg version="1.0" xmlns="http://www.w3.org/2000/svg"
 width="100.000000pt" height="29.000000pt" viewBox="0 0 100.000000 29.000000"
 preserveAspectRatio="xMidYMid meet">

<g transform="translate(0.000000,29.000000) scale(0.100000,-0.100000)"
fill="#000000" stroke="none">
<path d="M199 169 c-8 -16 -8 -28 0 -45 10 -23 44 -33 55 -16 3 5 -4 8 -16 8
-31 -1 -47 29 -25 51 13 13 20 15 29 5 17 -17 33 -15 18 3 -18 22 -47 18 -61
-6z"/>
<path d="M290 155 c-17 -21 -8 -50 17 -53 26 -4 41 31 23 53 -16 19 -24 19
-40 0z m37 -11 c8 -21 -13 -42 -28 -27 -13 13 -5 43 11 43 6 0 13 -7 17 -16z"/>
<path d="M350 161 c0 -5 5 -13 10 -16 6 -3 10 -2 10 4 0 5 -4 13 -10 16 -5 3
-10 2 -10 -4z"/>
<path d="M384 158 c-4 -7 -15 -24 -23 -38 -14 -23 -14 -24 0 -13 12 10 18 10
28 0 11 -10 11 -8 3 9 -8 15 -8 24 0 32 7 7 9 14 6 17 -3 4 -9 0 -14 -7z"/>
<path d="M433 163 c-8 -3 -13 -22 -13 -46 0 -23 4 -37 8 -31 4 6 15 13 25 17
35 13 15 72 -20 60z m27 -34 c0 -10 -7 -19 -15 -19 -15 0 -21 31 -9 43 11 10
24 -3 24 -24z"/>
<path d="M494 158 c-5 -8 -2 -9 9 -5 9 3 19 2 22 -2 2 -5 -4 -11 -15 -14 -30
-8 -25 -37 5 -37 21 0 25 5 25 29 0 17 -6 31 -16 35 -21 8 -22 8 -30 -6z m31
-38 c-3 -5 -10 -10 -16 -10 -5 0 -9 5 -9 10 0 6 7 10 16 10 8 0 12 -4 9 -10z"/>
<path d="M662 158 c-14 -14 -16 -32 -3 -23 5 3 12 -5 14 -17 3 -15 5 -9 6 15
1 41 0 42 -17 25z"/>
<path d="M697 162 c6 -4 13 -21 16 -37 l4 -30 2 32 c0 17 7 34 14 36 6 3 -1 6
-18 6 -16 0 -25 -3 -18 -7z"/>
<path d="M562 130 c0 -19 2 -27 5 -17 2 9 11 17 18 17 7 0 16 -8 18 -17 3 -10
5 -2 5 17 0 19 -2 29 -5 23 -2 -7 -11 -13 -18 -13 -7 0 -16 6 -18 13 -3 6 -5
-4 -5 -23z"/>
<path d="M631 131 c-1 -24 2 -32 9 -25 7 7 7 19 1 35 -9 23 -10 22 -10 -10z"/>
<path d="M760 132 c0 -29 3 -33 22 -30 28 4 35 26 11 35 -10 3 -21 11 -25 17
-4 6 -8 -4 -8 -22z m40 -12 c0 -5 -7 -10 -15 -10 -8 0 -15 5 -15 10 0 6 7 10
15 10 8 0 15 -4 15 -10z"/>
</g>
</svg>
