<?xml version="1.0" standalone="no"?>
<!DOCTYPE svg PUBLIC "-//W3C//DTD SVG 20010904//EN"
 "http://www.w3.org/TR/2001/REC-SVG-20010904/DTD/svg10.dtd">
<svg version="1.0" xmlns="http://www.w3.org/2000/svg"
 width="100.000000pt" height="29.000000pt" viewBox="0 0 100.000000 29.000000"
 preserveAspectRatio="xMidYMid meet">

<g transform="translate(0.000000,29.000000) scale(0.100000,-0.100000)"
fill="#000000" stroke="none">
<path d="M82 270 c-33 -15 -47 -29 -62 -62 -24 -54 -24 -72 0 -126 15 -33 29
-47 62 -62 40 -18 68 -20 418 -20 350 0 378 2 418 20 33 15 47 29 62 62 24 54
24 72 0 126 -15 33 -29 47 -62 62 -40 18 -68 20 -418 20 -350 0 -378 -2 -418
-20z m436 -137 c-23 -22 -29 -24 -42 -13 -9 7 -16 17 -16 23 0 7 4 7 12 -1 8
-8 17 -6 36 9 35 27 42 14 10 -18z"/>
</g>
</svg>
